<svg width="34" height="34" viewBox="0 0 34 34" fill="none" xmlns="http://www.w3.org/2000/svg">
<path d="M15.5833 24.0833H18.4166V18.4167H24.0833V15.5833H18.4166V9.91667H15.5833V15.5833H9.91659V18.4167H15.5833V24.0833ZM16.9999 31.1667C15.0402 31.1667 13.1985 30.8007 11.4749 30.0688C9.75131 29.3132 8.252 28.2979 6.977 27.0229C5.702 25.7479 4.68672 24.2486 3.93117 22.525C3.19922 20.8014 2.83325 18.9597 2.83325 17C2.83325 15.0403 3.19922 13.1986 3.93117 11.475C4.68672 9.75139 5.702 8.25208 6.977 6.97708C8.252 5.70208 9.75131 4.69861 11.4749 3.96666C13.1985 3.21111 15.0402 2.83333 16.9999 2.83333C18.9596 2.83333 20.8013 3.21111 22.5249 3.96666C24.2485 4.69861 25.7478 5.70208 27.0228 6.97708C28.2978 8.25208 29.3013 9.75139 30.0333 11.475C30.7888 13.1986 31.1666 15.0403 31.1666 17C31.1666 18.9597 30.7888 20.8014 30.0333 22.525C29.3013 24.2486 28.2978 25.7479 27.0228 27.0229C25.7478 28.2979 24.2485 29.3132 22.5249 30.0688C20.8013 30.8007 18.9596 31.1667 16.9999 31.1667ZM16.9999 28.3333C20.1638 28.3333 22.8437 27.2354 25.0395 25.0396C27.2353 22.8437 28.3333 20.1639 28.3333 17C28.3333 13.8361 27.2353 11.1562 25.0395 8.96042C22.8437 6.76458 20.1638 5.66666 16.9999 5.66666C13.836 5.66666 11.1562 6.76458 8.96033 8.96042C6.7645 11.1562 5.66659 13.8361 5.66659 17C5.66659 20.1639 6.7645 22.8437 8.96033 25.0396C11.1562 27.2354 13.836 28.3333 16.9999 28.3333Z" fill="#1D1B20"/>
</svg>
